<?xml version="1.0" encoding="UTF-8" standalone="no"?>
<svg
   viewBox="0 0 76.940711 22.655753"
   id="zserio-logo"
   version="1.1"
   sodipodi:docname="zs-yaml.svg"
   width="76.940712"
   height="22.655754"
   inkscape:version="1.3.2 (091e20ef0f, 2023-11-25)"
   xml:space="preserve"
   xmlns:inkscape="http://www.inkscape.org/namespaces/inkscape"
   xmlns:sodipodi="http://sodipodi.sourceforge.net/DTD/sodipodi-0.dtd"
   xmlns="http://www.w3.org/2000/svg"
   xmlns:svg="http://www.w3.org/2000/svg"
   xmlns:rdf="http://www.w3.org/1999/02/22-rdf-syntax-ns#"
   xmlns:cc="http://creativecommons.org/ns#"
   xmlns:dc="http://purl.org/dc/elements/1.1/"><metadata
     id="metadata21"><rdf:RDF><cc:Work
         rdf:about=""><dc:format>image/svg+xml</dc:format><dc:type
           rdf:resource="http://purl.org/dc/dcmitype/StillImage" /></cc:Work></rdf:RDF></metadata><defs
     id="defs19" /><sodipodi:namedview
     pagecolor="#ffffff"
     bordercolor="#666666"
     borderopacity="1"
     objecttolerance="10"
     gridtolerance="10"
     guidetolerance="10"
     inkscape:pageopacity="0"
     inkscape:pageshadow="2"
     inkscape:window-width="1920"
     inkscape:window-height="935"
     id="namedview17"
     showgrid="false"
     inkscape:zoom="5.6462916"
     inkscape:cx="29.134167"
     inkscape:cy="0.79698329"
     inkscape:window-x="0"
     inkscape:window-y="32"
     inkscape:window-maximized="1"
     inkscape:showpageshadow="2"
     inkscape:pagecheckerboard="0"
     inkscape:deskcolor="#d1d1d1"
     inkscape:current-layer="zserio-logo" /><rect
     style="fill:#ffffff;fill-opacity:1;stroke:none;stroke-width:0.444658"
     id="rect3"
     width="76.940712"
     height="22.655754"
     x="0"
     y="0" /><g
     id="zserio-logo-serio"
     fill="currentColor"
     transform="matrix(0.96869663,0,0,0.96869663,5.4172856,2.76989)"><path
       d="m 21.733415,11.886839 q 0,1.508249 -1.251904,2.474278 -1.242093,0.966048 -3.400868,0.966048 -1.222375,0 -2.24756,-0.285874 -1.015376,-0.295725 -1.705339,-0.640746 v -2.079999 h 0.09857 q 0.877324,0.660455 1.951776,1.054813 1.074434,0.38445 2.06028,0.38445 1.222375,0 1.912339,-0.394309 0.689963,-0.394309 0.690033,-1.242094 0,-0.650605 -0.37459,-0.985767 -0.37459,-0.335162 -1.439184,-0.571739 -0.394309,-0.08872 -1.035094,-0.207009 -0.630886,-0.118294 -1.153309,-0.256297 -1.449092,-0.384449 -2.06028,-1.1237795 -0.601318,-0.74918 -0.601318,-1.8335618 0,-0.6801737 0.276016,-1.2815312 0.285874,-0.6013179 0.857614,-1.0744331 0.552031,-0.4633054 1.399746,-0.7294612 0.857614,-0.2760152 1.912338,-0.2760152 0.985757,0 1.991214,0.2464369 1.015375,0.2365873 1.68562,0.5815989 V 6.593252 h -0.09857 Q 20.491193,6.0707998 19.475886,5.7159287 18.460511,5.3511981 17.484672,5.3511981 q -1.015375,0 -1.715248,0.394309 -0.699893,0.3844494 -0.699893,1.1533088 0,0.6801737 0.423878,1.0251853 0.414018,0.3450117 1.340589,0.5618801 0.512592,0.1182937 1.143499,0.2365873 0.640745,0.1182937 1.064623,0.2168685 1.291341,0.2957242 1.991214,1.0153751 0.699893,0.7294608 0.699893,1.9320578 z"
       inkscape:connector-curvature="0"
       id="path5" /></g><path
     id="zserio-logo-z"
     d="M 16.939948,17.513033 H 6.5404496 V 15.235944 L 12.376159,9.0354854 H 6.7770766 V 6.442894 H 16.831742 v 2.2376514 l -5.747023,6.1905486 h 5.855427 z"
     inkscape:connector-curvature="0"
     style="fill:#ff0000" /><g
     id="g2"
     transform="matrix(0.08129594,0,0,0.08129594,82.698086,11.100326)"><g
       id="g1"
       transform="matrix(1.3333333,0,0,1.3333333,-558.97901,-69.293599)"><polygon
         points="1,109 73,1 258,1 258,19 318,109 "
         style="fill:#ffffff;stroke:#000000;stroke-width:1"
         id="polygon1" /><polygon
         points="1,109 37,55 1,1 25,1 49,37 73,1 97,1 25,109 "
         style="fill:#000000;stroke:#000000;stroke-width:1"
         id="polygon2" /><polygon
         points="127,1 103,1 31,109 55,109 103,37 103,109 127,109 "
         style="fill:#000000;stroke:#000000;stroke-width:1"
         id="polygon3" /><polygon
         points="228,1 198,1 180,37 156,1 132,1 132,109 156,109 156,37 180,73 204,37 204,109 228,109 "
         style="fill:#000000;stroke:#000000;stroke-width:1"
         id="polygon4" /><polygon
         points="318,109 302,85 258,85 258,1 234,1 234,109 "
         style="fill:#000000;stroke:#000000;stroke-width:1"
         id="polygon5" /></g></g><rect
     style="fill:#000000;fill-opacity:1;stroke:none;stroke-width:0.784084"
     id="rect2"
     width="6.5856104"
     height="1.8180964"
     x="29.616592"
     y="10.931295" /><rect
     style="fill:none;fill-opacity:1;stroke:#311620;stroke-width:0.721635;stroke-opacity:0.642554"
     id="rect4"
     width="73.180183"
     height="19.131836"
     x="2.0607479"
     y="1.8520763" /></svg>
